{"title":"House S08E02 Nl subs DutchReleaseTeam","uid":6737199,"size":366185833,"categoryP":"video","categoryS":"tv_shows","magnet":"?xt=urn:btih:1fd8685b1fe761355e7215c1bc20d8145608d965&amp;dn=House+S08E02+Nl+subs+DutchReleaseTeam&amp;tr=udp%3A%2F%2Ftracker.openbittorrent.com%3A80&amp;tr=udp%3A%2F%2Fopen.demonii.com%3A1337&amp;tr=udp%3A%2F%2Ftracker.coppersurfer.tk%3A6969&amp;tr=udp%3A%2F%2Fexodus.desync.com%3A6969","seeders":1,"leechers":0,"uploader":"Koedje","files":-1,"time":1318371602,"description":"\nPlot:\n\nHouse, M.D. volgt de praktijken van dokter Gregory House, een briljante, maar verbitterde arts. Hij drijft zijn team van jonge dokters tot het uiterste om achter de oorzaken van een patiÃƒÂ«nt z'n ziekte te komen, zet zijn vriendschap met collega Wilson regelmatig op het spel en drijft zijn baas Cuddy tot wanhoop. Maar aan het eind van de dag red hij meestal het leven van een patiÃƒÂ«nt die anderen opgegeven zouden hebben. \n\n\nVertaling en andere aanpassingen:\nSpooky 666\n\n\n\nSeizoen 8 Aflevering 2: Transplant\n\n\nA surprising visitor makes House an offer he can't refuse by giving him the opportunity to help the Princeton Plainsboro team treat a unique patient in order to save the life of an organ recipient being treated by Wilson. Although House finds himself back on familiar ground, he quickly realizes that much has changed since he left, and he is forced to work on the case with smart yet timid resident Dr. Chi Park. After several inconclusive treatments and with time running out, House and Dr. Park are left with one last option to examine the patient's medical history that could compromise House's conditional agreement with the hospital. Meanwhile, House makes an effort to reconnect with Wilson despite a cold reception.\n\n\nINFO;\n\n\nVideo\nID                                       : 0\nFormat                                   : MPEG-4 Visual\nFormat profile                           : Advanced Simple@L5\nFormat settings, BVOP                    : 1\nFormat settings, QPel                    : No\nFormat settings, GMC                     : No warppoints\nFormat settings, Matrix                  : Default (H.263)\nMuxing mode                              : Packed bitstream\nCodec ID                                 : XVID\nCodec ID/Hint                            : XviD\nDuration                                 : 43mn 3s\nBit rate                                 : 967 Kbps\nWidth                                    : 624 pixels\nHeight                                   : 352 pixels\nDisplay aspect ratio                     : 16:9\nFrame rate                               : 23.976 fps\nColor space                              : YUV\nChroma subsampling                       : 4:2:0\nBit depth                                : 8 bits\nScan type                                : Progressive\nCompression mode                         : Lossy\nBits/(Pixel*Frame)                       : 0.184\nStream size                              : 298 MiB (85%)\nWriting library                          : XviD 64\n\nAudio\nID                                       : 1\nFormat                                   : MPEG Audio\nFormat version                           : Version 1\nFormat profile                           : Layer 3\nMode                                     : Joint stereo\nMode extension                           : MS Stereo\nCodec ID                                 : 55\nCodec ID/Hint                            : MP3\nDuration                                 : 43mn 3s\nBit rate mode                            : Variable\nBit rate                                 : 154 Kbps\nChannel(s)                               : 2 channels\nSampling rate                            : 48.0 KHz\nCompression mode                         : Lossy\nStream size                              : 47.3 MiB (14%)\nAlignment                                : Aligned on interleaves\nInterleave, duration                     : 24 ms (0.58 video frame)\nInterleave, preload duration             : 494 ms\n\n\n &lt;a href=&quot;\nhttp://www.imdb.com/title/tt0412142/&quot; rel=&quot;nofollow&quot; target=&quot;_NEW&quot;&gt;\nhttp://www.imdb.com/title/tt0412142/&lt;/a&gt;\n\n\n\nDutchReleaseteam = Hardcoded Dutch Subs","torrent":{"xt":"urn:btih:1fd8685b1fe761355e7215c1bc20d8145608d965","amp;dn":"House+S08E02+Nl+subs+DutchReleaseTeam","amp;tr":["udp%3A%2F%2Ftracker.openbittorrent.com%3A80","udp%3A%2F%2Fopen.demonii.com%3A1337","udp%3A%2F%2Ftracker.coppersurfer.tk%3A6969","udp%3A%2F%2Fexodus.desync.com%3A6969"],"infoHash":"1fd8685b1fe761355e7215c1bc20d8145608d965","infoHashBuffer":{"type":"Buffer","data":[31,216,104,91,31,231,97,53,94,114,21,193,188,32,216,20,86,8,217,101]},"announce":[],"urlList":[]}}